<svg id="ffe461da-1fae-4069-b43d-d86b987d49f2" data-name="Ebene 1" xmlns="http://www.w3.org/2000/svg" xmlns:xlink="http://www.w3.org/1999/xlink" viewBox="0 0 414.52 113.62"><defs><style>.e03c152a-3d96-43bb-9d00-1d53629fddee{fill:url(#a79578e7-34b2-4749-b2c3-73413f0acd71);}.b8897289-e7fe-492a-b211-8b9c7c67bb69,.edba4218-24bf-4033-bc8a-02aa7e4d9101{fill:#b3b3ba;}.b8897289-e7fe-492a-b211-8b9c7c67bb69,.eba7cc31-bdb3-48d4-ae9f-b3fd3d44ae46{fill-rule:evenodd;}.ac620ef2-c897-44b6-a04d-deb01784ab5e,.eba7cc31-bdb3-48d4-ae9f-b3fd3d44ae46{fill:#fff;}.a63b6cc1-ed10-4856-8a3a-65101acf7714{fill:#1d1d1b;}.b3a7f06a-5049-47d3-b014-0c0609d4ae3a{fill:#5ec5e8;}.e4ca6742-9d90-4879-aa60-6b5d16ef3754{fill:#2581c4;}.a1186d4c-2445-4acb-a25c-dc0ee671eec9{fill:#706f6f;}.a95b0eea-147c-4ddc-8f69-72928817a9d5{fill:#e30613;}.e21b1c1d-addb-4f3b-842e-f6b7e602819b,.e71d1bad-fa53-40cc-971c-e1de676f6569,.efcdf5b4-3a0c-4672-aeb7-1b8aedd334f0{fill:none;}.e21b1c1d-addb-4f3b-842e-f6b7e602819b,.efcdf5b4-3a0c-4672-aeb7-1b8aedd334f0{stroke:#1d1d1b;stroke-miterlimit:2.61;}.efcdf5b4-3a0c-4672-aeb7-1b8aedd334f0{stroke-width:0.22px;}.e21b1c1d-addb-4f3b-842e-f6b7e602819b{stroke-width:0.24px;}</style><linearGradient id="a79578e7-34b2-4749-b2c3-73413f0acd71" x1="149.16" y1="32.08" x2="415.43" y2="32.08" gradientUnits="userSpaceOnUse"><stop offset="0" stop-color="#5ec5e8"/><stop offset="0.12" stop-color="#5bc3e2"/><stop offset="0.28" stop-color="#52bfd2"/><stop offset="0.47" stop-color="#42b7b7"/><stop offset="0.66" stop-color="#2dad91"/><stop offset="0.87" stop-color="#129f61"/><stop offset="1" stop-color="#009640"/></linearGradient></defs><title>Logo_Kradolf-Schönenberg_Vector_farbig</title><path class="e03c152a-3d96-43bb-9d00-1d53629fddee" d="M155.06,29.88c11.68-2.55,23-5.83,34.87-8V31c15.87,2.85,28.56,8.56,46.25,8.7,22.6.16,38.51-9.65,61.58-9.56,13.62.05,25.16,3.88,37.25,7V13.84c-21.75,3.92-41.39,11.61-65.28,11.78s-41-10.8-64-10.88c-19-.07-34.12,9-50.66,10.94Zm0,18.85c12.63-1.36,23.28-5.53,34.9-8.17V31a77.89,77.89,0,0,0-14.09-1.32A128.25,128.25,0,0,0,155,31.51ZM339.28,38.18c-1.44-.34-2.86-.68-4.27-1-21.75,3.78-41.94,11.43-65.28,11.6s-38.88-9.88-61.57-9.79a83.1,83.1,0,0,0-18.23,1.62v4.9c-11.84,2.06-23.21,5.18-34.88,7.63L155,55a122.87,122.87,0,0,1,19.6-1.73c23.79-.08,40.8,10.62,64,10.29,20.56-.3,38.88-9.75,61.57-9.83S338.46,64.3,361.8,64.13c20.33-.15,34.05-4.85,52.72-8.79V32c-9.34,1.79-7.7,1.76-16.84,3.92v-11l-33.49,0V16l2.76.09-4-4L359.76,0,356.93,12.1l-3.79,3.83h2.53v8.83h-4.41l-5.68,9.13-6.3,4.29"/><path class="b8897289-e7fe-492a-b211-8b9c7c67bb69" d="M385,38.66Z"/><polygon class="b8897289-e7fe-492a-b211-8b9c7c67bb69" points="388.14 38.61 388.09 38.67 388.19 38.67 388.14 38.61 388.14 38.61"/><polygon class="b8897289-e7fe-492a-b211-8b9c7c67bb69" points="388.19 38.67 397.6 38.68 388.19 38.67 388.19 38.67 388.19 38.67"/><polygon class="edba4218-24bf-4033-bc8a-02aa7e4d9101" points="388.09 38.67 388.09 38.67 388.19 38.67 388.19 38.67 388.09 38.67 388.09 38.67"/><path class="ac620ef2-c897-44b6-a04d-deb01784ab5e" d="M339.75,38.61v18H344V42.73l3.16-1.18L350,43.62v13h3.15v-16a103.72,103.72,0,0,1-12-2l-1.83-.43Z"/><path class="a63b6cc1-ed10-4856-8a3a-65101acf7714" d="M165,73.57h3.9v9H169c.33-.83.65-1.73,1-2.59l2.68-6.43h4.28l-4.49,8.72L177,93.63h-4.25l-2.92-8.3L168.9,87v6.67H165Z"/><path class="a63b6cc1-ed10-4856-8a3a-65101acf7714" d="M179,83.45c0-1.46-.06-3-.12-4.37h3.4l.2,2.11h.09a3.39,3.39,0,0,1,2.89-2.35,3.18,3.18,0,0,1,.83.06v3.87a3.43,3.43,0,0,0-.83-.06,2.59,2.59,0,0,0-2.38,2.08,5.87,5.87,0,0,0-.15,1.46v7.38H179Z"/><path class="a63b6cc1-ed10-4856-8a3a-65101acf7714" d="M198.59,90.3a19.31,19.31,0,0,0,.24,3.33h-3.51l-.21-1.43h-.06a3.82,3.82,0,0,1-3.22,1.67c-2.2,0-3.83-1.85-3.83-4.44,0-3.81,3.36-5.38,6.66-5.41v-.33a1.85,1.85,0,0,0-2-2,5.44,5.44,0,0,0-3,.83l-.71-2.62a9.42,9.42,0,0,1,4.52-1.1c4.44,0,5.15,3.09,5.15,6Zm-3.81-3.75c-1.31,0-3.09.44-3.09,2.47,0,1.45.8,2,1.39,2a1.7,1.7,0,0,0,1.61-1.25,2.56,2.56,0,0,0,.09-.69Z"/><path class="a63b6cc1-ed10-4856-8a3a-65101acf7714" d="M212.81,73V89.31c0,1.4.06,3,.12,4.32h-3.36L209.36,92h-.06a3.56,3.56,0,0,1-3,1.88c-3.09,0-4.52-3.43-4.52-7.5,0-5.06,2.2-7.53,4.67-7.53a2.46,2.46,0,0,1,2.44,1.46h.06V73Zm-3.9,11.63a8.53,8.53,0,0,0,0-.86c-.15-.89-.62-1.7-1.4-1.7-1.36,0-1.87,2-1.87,4.35,0,2.76.74,4.22,1.84,4.22.48,0,1.05-.27,1.34-1.28a2.45,2.45,0,0,0,.12-.89Z"/><path class="a63b6cc1-ed10-4856-8a3a-65101acf7714" d="M226.76,86.31c0,6.07-3.36,7.56-5.56,7.56-3.48,0-5.57-2.74-5.57-7.47,0-5.24,2.74-7.56,5.63-7.56C224.68,78.84,226.76,81.73,226.76,86.31Zm-7.26,0c0,2.5.39,4.58,1.79,4.58,1.25,0,1.57-2.44,1.57-4.58s-.32-4.53-1.63-4.53S219.5,84.31,219.5,86.31Z"/><path class="a63b6cc1-ed10-4856-8a3a-65101acf7714" d="M229.56,73h3.9V93.63h-3.9Z"/><path class="a63b6cc1-ed10-4856-8a3a-65101acf7714" d="M237.83,93.63V81.84h-2V79.08h2v-.6a5.85,5.85,0,0,1,1.49-4.34,4.76,4.76,0,0,1,3.48-1.34,7.75,7.75,0,0,1,2.35.33l-.45,3a3.31,3.31,0,0,0-1.19-.18c-1.31,0-1.78,1.13-1.78,2.41v.69h2.53v2.76h-2.53V93.63Z"/><path class="a63b6cc1-ed10-4856-8a3a-65101acf7714" d="M253.74,84v2.79h-5.92V84Z"/><path class="a63b6cc1-ed10-4856-8a3a-65101acf7714" d="M257.85,89.64a7.54,7.54,0,0,0,3.3.77c1.85,0,2.74-1,2.74-2.26,0-1.46-.89-2.17-2.59-3.27-2.74-1.67-3.78-3.78-3.78-5.59,0-3.22,2.14-5.9,6.34-5.9a6.76,6.76,0,0,1,3.15.72l-.62,3.36a4.77,4.77,0,0,0-2.56-.68c-1.67,0-2.47,1-2.47,2.08s.6,1.81,2.77,3.12c2.65,1.61,3.63,3.63,3.63,5.75,0,3.66-2.71,6.07-6.64,6.07a8.8,8.8,0,0,1-3.84-.81Z"/><path class="a63b6cc1-ed10-4856-8a3a-65101acf7714" d="M278.59,93.39a6.83,6.83,0,0,1-2.47.42c-3.69,0-6.1-2.56-6.1-7.32,0-4.5,2.64-7.62,6.66-7.62a5.64,5.64,0,0,1,2.14.39l-.5,3.06a4.07,4.07,0,0,0-1.46-.27c-1.87,0-3,1.79-3,4.32s1.1,4.25,2.91,4.25a3.18,3.18,0,0,0,1.46-.3Z"/><path class="a63b6cc1-ed10-4856-8a3a-65101acf7714" d="M281,73h3.9V80.6H285a4.38,4.38,0,0,1,1.25-1.25,3.92,3.92,0,0,1,2-.51c2.68,0,3.72,2.26,3.72,6v8.84H288V84.79c0-1.43-.27-2.68-1.43-2.68-.66,0-1.22.39-1.52,1.37a5.73,5.73,0,0,0-.15,1.1v9H281Z"/><path class="a63b6cc1-ed10-4856-8a3a-65101acf7714" d="M305.72,86.31c0,6.07-3.36,7.56-5.57,7.56-3.48,0-5.56-2.74-5.56-7.47,0-5.24,2.74-7.56,5.62-7.56C303.64,78.84,305.72,81.73,305.72,86.31ZM297.48,77a1.91,1.91,0,0,1,0-3.81,1.91,1.91,0,0,1,0,3.81Zm1,9.34c0,2.5.39,4.58,1.78,4.58s1.58-2.44,1.58-4.58-.33-4.53-1.64-4.53S298.46,84.31,298.46,86.31ZM302.77,77a1.91,1.91,0,0,1,0-3.81,1.91,1.91,0,0,1,0,3.81Z"/><path class="a63b6cc1-ed10-4856-8a3a-65101acf7714" d="M308.51,83.45c0-1.61-.09-3-.12-4.37h3.37l.17,1.66H312a4.19,4.19,0,0,1,3.54-1.9c2.77,0,3.87,2.2,3.87,5.44v9.35h-3.89V84.52c0-1.22-.3-2.41-1.43-2.41-.66,0-1.19.45-1.46,1.31a3.78,3.78,0,0,0-.21,1.34v8.87h-3.9Z"/><path class="a63b6cc1-ed10-4856-8a3a-65101acf7714" d="M326,87.74c.06,2.26,1.36,3.09,3.09,3.09a8.57,8.57,0,0,0,2.77-.48l.53,2.8a12,12,0,0,1-4,.66c-4,0-6.13-2.62-6.13-7.17,0-4.88,2.53-7.8,5.83-7.8,3.12,0,4.94,2.47,4.94,6.87a10.37,10.37,0,0,1-.12,2ZM329.46,85c0-1.88-.48-3.33-1.64-3.33S326,83.54,326,85Z"/><path class="a63b6cc1-ed10-4856-8a3a-65101acf7714" d="M335.94,83.45c0-1.61-.09-3-.12-4.37h3.37l.17,1.66h.06a4.19,4.19,0,0,1,3.54-1.9c2.77,0,3.87,2.2,3.87,5.44v9.35h-3.9V84.52c0-1.22-.29-2.41-1.42-2.41a1.57,1.57,0,0,0-1.46,1.31,3.78,3.78,0,0,0-.21,1.34v8.87h-3.9Z"/><path class="a63b6cc1-ed10-4856-8a3a-65101acf7714" d="M350.28,73h3.9v7.5h.06a3.44,3.44,0,0,1,3-1.7c2.83,0,4.11,3.18,4.11,7.11,0,5.09-2,7.92-4.73,7.92a3,3,0,0,1-2.86-2h-.09l-.21,1.73h-3.33c.06-1.28.12-2.92.12-4.32Zm3.9,15.38a2.56,2.56,0,0,0,.15.92c.32,1,.86,1.34,1.34,1.34,1.31,0,1.84-1.63,1.84-4.43,0-2.5-.56-4.14-1.87-4.14-.6,0-1.1.63-1.31,1.34a3,3,0,0,0-.15.89Z"/><path class="a63b6cc1-ed10-4856-8a3a-65101acf7714" d="M367.74,87.74a2.81,2.81,0,0,0,3.1,3.09,8.57,8.57,0,0,0,2.77-.48l.53,2.8a12,12,0,0,1-4,.66c-3.95,0-6.12-2.62-6.12-7.17,0-4.88,2.52-7.8,5.83-7.8,3.12,0,4.94,2.47,4.94,6.87a10.37,10.37,0,0,1-.12,2ZM371.23,85c0-1.88-.48-3.33-1.64-3.33s-1.79,1.87-1.82,3.33Z"/><path class="a63b6cc1-ed10-4856-8a3a-65101acf7714" d="M377.68,83.45c0-1.46-.06-3-.12-4.37H381l.21,2.11h.09a3.39,3.39,0,0,1,2.89-2.35,3.26,3.26,0,0,1,.83.06v3.87a3.51,3.51,0,0,0-.83-.06,2.58,2.58,0,0,0-2.38,2.08,5.87,5.87,0,0,0-.15,1.46v7.38h-3.93Z"/><path class="a63b6cc1-ed10-4856-8a3a-65101acf7714" d="M397.67,92c0,3.12-.56,4.85-1.75,6a6.58,6.58,0,0,1-4.73,1.61,9.21,9.21,0,0,1-3.63-.69l.71-3a6.82,6.82,0,0,0,2.8.62c2,0,2.74-1.31,2.74-3.54v-.89h-.06a3,3,0,0,1-2.62,1.46c-3.28,0-4.55-3.57-4.55-7.05,0-4.85,2.2-7.65,4.9-7.65a2.9,2.9,0,0,1,2.68,1.7h.06l.21-1.46h3.39c-.06,1.31-.15,2.85-.15,4.61Zm-3.86-7.62a3.89,3.89,0,0,0-.15-1.07,1.43,1.43,0,0,0-1.25-1.19c-1.4,0-2,1.91-2,4.29,0,2.71.78,4.07,1.88,4.07a1.38,1.38,0,0,0,1.31-1,3.57,3.57,0,0,0,.18-1.16Z"/><path class="b3a7f06a-5049-47d3-b014-0c0609d4ae3a" d="M82.12,24.83C68.6,22,57.31,16.06,41.32,16.06H39.46l.34-1.73a6.91,6.91,0,0,1,7-1.25l.63-.73c1.08-.09,2,1,3.29-.3L52,10.22l-1.78.64,1.6-1.11L48.83,10c-.75.13-1.25,1.44-2.31.38-1.9.24-3.63,1.2-5.75.73L37.44,14.3c-.29.59-.57,1.19-.85,1.78-.56,0-1.45,0-1.45,0a6.75,6.75,0,0,0-2.93-2.91l-2-.63-1.18-1.64c1.65-.28,2.5.84,3.68,1.12.75.18,1.15-.11,1.32.34.27.73,1.62,1.07,2.23,1,1.83-.16-4.13-3-.85-1.73.64.25,2.08,2.12,2.49-.1-.35-1.78-1.18-2.19-2.51-3.28l-.67-1.68-1-.85,18.57,0-8.7-1.67,1.26.93L40.24,4l1.06.81-3.57-.95,1.05.95-4.1-.95L36.8,5.08l-5-1.37L33,4.9c-1.41-.66-3.08-1.46-3.45-1.54L26,4.13l-1.31-.22L23,2.94l-1.56,0,3,2.8-.89,1.48-.71,4.19.37,3.4a9.82,9.82,0,0,1-1,3.1A206.19,206.19,0,0,0,0,22.89V45.24c6.9-1.84,13-3.51,20.14-4.9h0A10.28,10.28,0,0,0,21,43.49l2,.41.32,4.75,1,7.4-3.1,2.48c0,1.54,1,1.58,1.56,2.37a25,25,0,0,1,1.69,3.81A6.68,6.68,0,0,1,25,67.64l1.43.43c-.14,1-.29,2-.43,2.94,1.05,1,2.38.77,3.57,1.15l-1.27-2.47,2.41,2c.55-1.63-1.16-2.39-1.75-3.59L25.06,60.2l1.83-3.48,3.29-1.79.66-2.79.89-2.86-.88-4-.93-1.42c6.52,3.53,4.95.56,5.79,8.88,0,3-.33,4.27.3,4.36s2.84.67,2.65-1.93c1.22-1.72,2.44-3.43,3.65-5.15L44.44,46l-.18-.65-.18-.66c.94,0,2.61-.74,2.7-1.54L47,40.91l-1.39,1.17c.23-.41.72-1,.7-1.24l-.07-.68-1.51.6-1.69,1.68-.15,1.63-4.86,7.58L38,48.94c.22-2,1.29-3.52.66-5.93l-1.32-2c-1.24-1.43-3.9-.83-5.84-1.25l.35-1.15c2.72-.24,5.5-.4,8.36-.41,15.74,0,28.16,5.8,42,8.86Z"/><path class="ac620ef2-c897-44b6-a04d-deb01784ab5e" d="M22.64,42.37l-.9.57c-.16-.72-.36-1.91-.51-2.88.5-.2,1-.37,1.49-.55l.09,0Z"/><path class="eba7cc31-bdb3-48d4-ae9f-b3fd3d44ae46" d="M20.85,34.77c.83-2.17.88-4.66,2.5-6.49a3.48,3.48,0,0,0-1.21-2.83l-1.22,3.44-.07,2.16c-.33,1.14-.65,2.28-1,3.42a52.08,52.08,0,0,0,.27,5.93l1.22-.22a16.54,16.54,0,0,1-.51-5.41Z"/><path class="eba7cc31-bdb3-48d4-ae9f-b3fd3d44ae46" d="M35,30.12l2.36-1.24.86-2.81L39,21.68l1.41.66L42.21,25c1,2.95,1.4,5.74,2.44,4.74-.74,3,.07,3.16,2.39,2.89L45.49,30.9l1.16,1,1.1.34c-1.33-2.3-2.65-4.61-4-6.91L41.9,21c-.12-.86.17-1.84-.36-2.58l-1.19-.13-2.66,2L39,18.1,39.19,16v0c-1,0-1.95.05-2.92.1l-.5,1.05a9,9,0,0,1-.78-1,117.22,117.22,0,0,0-12.72,1.54c-.13.37-.25.75-.35,1.14l1-.84c-.28,1.05-.38,1.84-.84,3.16l1.16-1.35c.42,1.43-.47,2.17-.72,3.25l2.08-1.52.2,1.64-.26,4.3.44,6.4c-.75,1.79-2.08,1.32-2.28,5.66l0,.21c2.91-.51,5.87-.92,8.91-1.2l.85-2.75L35,30.12Z"/><path class="e4ca6742-9d90-4879-aa60-6b5d16ef3754" d="M165.07,104a12.26,12.26,0,0,1,2.26-.2,4,4,0,0,1,2.64.7,2,2,0,0,1,.8,1.7,2.29,2.29,0,0,1-1.63,2.11v0a2.46,2.46,0,0,1,2,2.41,2.57,2.57,0,0,1-.81,1.92,4.83,4.83,0,0,1-3.32.9,13.74,13.74,0,0,1-1.92-.12Zm1.24,3.94h1.12c1.31,0,2.08-.69,2.08-1.61,0-1.13-.85-1.57-2.11-1.57a5.58,5.58,0,0,0-1.09.08Zm0,4.6a6.9,6.9,0,0,0,1,.06c1.28,0,2.46-.47,2.46-1.87s-1.12-1.85-2.48-1.85h-1Z"/><path class="e4ca6742-9d90-4879-aa60-6b5d16ef3754" d="M175,103.86v5.68c0,2.15,1,3.07,2.24,3.07s2.34-.94,2.34-3.07v-5.68h1.25v5.6c0,3-1.55,4.16-3.63,4.16s-3.45-1.13-3.45-4.11v-5.65Z"/><path class="e4ca6742-9d90-4879-aa60-6b5d16ef3754" d="M185.13,103.86v4h4.65v-4H191v9.6h-1.25V109h-4.65v4.5h-1.24v-9.6Z"/><path class="e4ca6742-9d90-4879-aa60-6b5d16ef3754" d="M195.69,113.46l-2.44-9.6h1.31l1.14,4.86c.29,1.19.55,2.39.72,3.32h0c.15-1,.45-2.1.78-3.34l1.28-4.84h1.3l1.17,4.87c.27,1.14.53,2.28.67,3.29h0c.2-1,.47-2.12.77-3.32l1.26-4.84H205l-2.72,9.6H201l-1.21-5a27,27,0,0,1-.62-3.14h0a28.88,28.88,0,0,1-.75,3.14l-1.36,5Z"/><path class="e4ca6742-9d90-4879-aa60-6b5d16ef3754" d="M208.36,103.86v9.6h-1.24v-9.6Z"/><path class="e4ca6742-9d90-4879-aa60-6b5d16ef3754" d="M211.46,103.86h1.24v8.56h4.11v1h-5.35Z"/><path class="e4ca6742-9d90-4879-aa60-6b5d16ef3754" d="M228.71,108.35v.85h-6.27v-.85Z"/><path class="e4ca6742-9d90-4879-aa60-6b5d16ef3754" d="M235.12,113.46v-9.6h1.35l3.08,4.86a27.23,27.23,0,0,1,1.73,3.12l0,0c-.11-1.28-.14-2.45-.14-3.94v-4h1.17v9.6h-1.25L238,108.59a31.73,31.73,0,0,1-1.8-3.21l0,0c.07,1.21.1,2.36.1,4v4.1Z"/><path class="e4ca6742-9d90-4879-aa60-6b5d16ef3754" d="M250.41,109h-3.73v3.46h4.16v1h-5.4v-9.6h5.18v1h-3.94v3h3.73Z"/><path class="e4ca6742-9d90-4879-aa60-6b5d16ef3754" d="M254.63,103.86v5.68c0,2.15,1,3.07,2.23,3.07,1.43,0,2.34-.94,2.34-3.07v-5.68h1.26v5.6c0,3-1.56,4.16-3.64,4.16s-3.45-1.13-3.45-4.11v-5.65Z"/><path class="e4ca6742-9d90-4879-aa60-6b5d16ef3754" d="M263.55,103.86h1.24v4.63h0c.26-.37.51-.71.76-1l2.93-3.6h1.54l-3.48,4.07,3.75,5.53h-1.47l-3.16-4.72-.91,1.06v3.66h-1.24Z"/><path class="e4ca6742-9d90-4879-aa60-6b5d16ef3754" d="M273.45,103.86v9.6h-1.24v-9.6Z"/><path class="e4ca6742-9d90-4879-aa60-6b5d16ef3754" d="M276.56,104a13.57,13.57,0,0,1,2.38-.2,4,4,0,0,1,2.78.79,2.4,2.4,0,0,1,.75,1.82,2.52,2.52,0,0,1-1.81,2.45v0a2.39,2.39,0,0,1,1.41,1.93,16,16,0,0,0,.74,2.64h-1.28a12.48,12.48,0,0,1-.64-2.29c-.29-1.33-.8-1.83-1.92-1.87H277.8v4.16h-1.24Zm1.24,4.38h1.27c1.32,0,2.16-.73,2.16-1.82,0-1.24-.9-1.79-2.21-1.8a5.51,5.51,0,0,0-1.22.11Z"/><path class="e4ca6742-9d90-4879-aa60-6b5d16ef3754" d="M291.92,113.15a6.1,6.1,0,0,1-2.54.47,4.5,4.5,0,0,1-4.74-4.88,4.77,4.77,0,0,1,5-5,5.11,5.11,0,0,1,2.28.43l-.3,1a4.47,4.47,0,0,0-1.93-.4c-2.26,0-3.75,1.44-3.75,4,0,2.35,1.35,3.86,3.69,3.86a4.84,4.84,0,0,0,2-.4Z"/><path class="e4ca6742-9d90-4879-aa60-6b5d16ef3754" d="M295.65,103.86v4h4.65v-4h1.25v9.6H300.3V109h-4.65v4.5h-1.24v-9.6Z"/><path class="e4ca6742-9d90-4879-aa60-6b5d16ef3754" d="M310.16,110.44l-1,3h-1.28l3.26-9.6h1.5l3.28,9.6h-1.33l-1-3Zm3.15-1-.94-2.76c-.22-.63-.36-1.2-.5-1.76h0c-.14.57-.3,1.16-.48,1.74l-.94,2.78Z"/><path class="e4ca6742-9d90-4879-aa60-6b5d16ef3754" d="M318.27,113.46v-9.6h1.35l3.08,4.86a25.62,25.62,0,0,1,1.72,3.12l0,0c-.11-1.28-.14-2.45-.14-3.94v-4h1.17v9.6h-1.26l-3.05-4.87a29.76,29.76,0,0,1-1.79-3.21l0,0c.07,1.21.1,2.36.1,4v4.1Z"/><path class="e4ca6742-9d90-4879-aa60-6b5d16ef3754" d="M332.54,104a18.46,18.46,0,0,1,2.64-.2,5.52,5.52,0,0,1,3.89,1.2,4.43,4.43,0,0,1,1.36,3.45,5.06,5.06,0,0,1-1.39,3.73,5.91,5.91,0,0,1-4.24,1.39,20.27,20.27,0,0,1-2.26-.12Zm1.24,8.5a7.59,7.59,0,0,0,1.26.07c2.65,0,4.09-1.48,4.09-4.08,0-2.26-1.27-3.7-3.89-3.7a6.54,6.54,0,0,0-1.46.13Z"/><path class="e4ca6742-9d90-4879-aa60-6b5d16ef3754" d="M348,109h-3.73v3.46h4.16v1H343v-9.6h5.18v1h-3.94v3H348Z"/><path class="e4ca6742-9d90-4879-aa60-6b5d16ef3754" d="M350.93,104a13.57,13.57,0,0,1,2.38-.2,4,4,0,0,1,2.78.79,2.4,2.4,0,0,1,.75,1.82,2.52,2.52,0,0,1-1.81,2.45v0a2.39,2.39,0,0,1,1.41,1.93,16,16,0,0,0,.74,2.64H355.9a12.48,12.48,0,0,1-.64-2.29c-.29-1.33-.8-1.83-1.93-1.87h-1.16v4.16h-1.24Zm1.24,4.38h1.27c1.32,0,2.16-.73,2.16-1.82,0-1.24-.9-1.79-2.21-1.8a5.51,5.51,0,0,0-1.22.11Z"/><path class="e4ca6742-9d90-4879-aa60-6b5d16ef3754" d="M364.73,104.91h-2.92v-1h7.12v1H366v8.55h-1.26Z"/><path class="e4ca6742-9d90-4879-aa60-6b5d16ef3754" d="M372.17,103.86v4h4.65v-4h1.25v9.6h-1.25V109h-4.65v4.5h-1.24v-9.6Z"/><path class="e4ca6742-9d90-4879-aa60-6b5d16ef3754" d="M382.4,103.86v5.68c0,2.15,1,3.07,2.24,3.07,1.43,0,2.34-.94,2.34-3.07v-5.68h1.25v5.6c0,3-1.55,4.16-3.63,4.16s-3.45-1.13-3.45-4.11v-5.65Z"/><path class="e4ca6742-9d90-4879-aa60-6b5d16ef3754" d="M391.32,104a13.75,13.75,0,0,1,2.38-.2,3.92,3.92,0,0,1,2.78.79,2.37,2.37,0,0,1,.76,1.82,2.52,2.52,0,0,1-1.81,2.45v0a2.39,2.39,0,0,1,1.41,1.93,15,15,0,0,0,.74,2.64H396.3a12.48,12.48,0,0,1-.64-2.29c-.29-1.33-.8-1.83-1.93-1.87h-1.17v4.16h-1.24Zm1.24,4.38h1.27c1.33,0,2.17-.73,2.17-1.82,0-1.24-.9-1.79-2.21-1.8a5.63,5.63,0,0,0-1.23.11Z"/><path class="a63b6cc1-ed10-4856-8a3a-65101acf7714" d="M89.29,93.13a8.53,8.53,0,0,1-3,.55,4.8,4.8,0,0,1-3.59-1.32,5.23,5.23,0,0,1-1.34-3.72,4.91,4.91,0,0,1,5.2-5.15A5.72,5.72,0,0,1,89,84l-.3,1a4.79,4.79,0,0,0-2.13-.43,3.66,3.66,0,0,0-3.86,4c0,2.54,1.47,4,3.71,4a3.88,3.88,0,0,0,1.65-.26v-3h-2v-1h3.16Z"/><path class="a63b6cc1-ed10-4856-8a3a-65101acf7714" d="M97.77,88.9H94v3.6H98.2v1.08H92.8v-10H98v1.08H94v3.16h3.73Z"/><path class="a63b6cc1-ed10-4856-8a3a-65101acf7714" d="M109.51,89.19c-.07-1.39-.15-3.06-.14-4.31h0c-.33,1.17-.73,2.43-1.21,3.79l-1.7,4.85h-.94l-1.55-4.76c-.46-1.4-.84-2.69-1.11-3.88h0c0,1.25-.1,2.92-.19,4.42l-.26,4.28h-1.18l.67-10h1.58l1.64,4.83c.4,1.23.73,2.33,1,3.36h0c.25-1,.59-2.1,1-3.36l1.71-4.83h1.58l.6,10h-1.21Z"/><path class="a63b6cc1-ed10-4856-8a3a-65101acf7714" d="M119.46,88.9h-3.73v3.6h4.16v1.08h-5.4v-10h5.18v1.08h-3.94v3.16h3.73Z"/><path class="a63b6cc1-ed10-4856-8a3a-65101acf7714" d="M124.35,83.59v10h-1.24v-10Z"/><path class="a63b6cc1-ed10-4856-8a3a-65101acf7714" d="M128.12,93.58v-10h1.36l3.07,5a28.37,28.37,0,0,1,1.73,3.25l0,0c-.12-1.33-.14-2.54-.14-4.1V83.59h1.16v10h-1.25L131,88.51a33.16,33.16,0,0,1-1.8-3.33h0c.07,1.26.1,2.46.1,4.12v4.27Z"/><path class="a63b6cc1-ed10-4856-8a3a-65101acf7714" d="M139.11,83.72a18.34,18.34,0,0,1,2.64-.2,5.38,5.38,0,0,1,3.89,1.24A4.72,4.72,0,0,1,147,88.35a5.39,5.39,0,0,1-1.38,3.88,5.8,5.8,0,0,1-4.25,1.44,20.22,20.22,0,0,1-2.25-.12Zm1.24,8.84a8.72,8.72,0,0,0,1.25.07c2.65,0,4.09-1.54,4.09-4.24,0-2.35-1.26-3.85-3.89-3.85a7.1,7.1,0,0,0-1.45.13Z"/><path class="a63b6cc1-ed10-4856-8a3a-65101acf7714" d="M155.18,88.9h-3.73v3.6h4.16v1.08h-5.4v-10h5.19v1.08h-4v3.16h3.73Z"/><polyline class="a1186d4c-2445-4acb-a25c-dc0ee671eec9" points="155.34 73.75 85.18 73.75 85.18 3.69 155.34 3.69 155.34 25.53"/><path class="ac620ef2-c897-44b6-a04d-deb01784ab5e" d="M81.79,35h69.86a.13.13,0,0,1,.13.13v35a.13.13,0,0,1-.13.13H81.79a.12.12,0,0,1-.12-.13v-35a.12.12,0,0,1,.12-.13Z"/><path class="a95b0eea-147c-4ddc-8f69-72928817a9d5" d="M107.85,34.85c1.6,10,1.74,28.53,25.08,35.38l18.86,0,0-15.05c-3.45-.25-22.11-2.44-20.58-20.32l-23.34,0Z"/><polygon class="a95b0eea-147c-4ddc-8f69-72928817a9d5" points="151.86 0.05 151.86 35.12 81.67 35.12 81.64 0.05 151.86 0.05 151.86 0.05"/><path class="efcdf5b4-3a0c-4672-aeb7-1b8aedd334f0" d="M81.64.13"/><path class="efcdf5b4-3a0c-4672-aeb7-1b8aedd334f0" d="M81.64.13"/><line class="efcdf5b4-3a0c-4672-aeb7-1b8aedd334f0" x1="81.64" y1="0.13" x2="81.64" y2="0.13"/><rect class="e71d1bad-fa53-40cc-971c-e1de676f6569" x="81.64" y="0.13" width="70.15" height="70.07"/><path class="ac620ef2-c897-44b6-a04d-deb01784ab5e" d="M81.67.12l.1.18C82.14,26.61,106.37,23.11,108,35H131.1C129.82,13.48,105.58,20.08,104.88.08Z"/><rect class="e21b1c1d-addb-4f3b-842e-f6b7e602819b" x="81.67" y="0.12" width="70.16" height="70.06"/><path class="eba7cc31-bdb3-48d4-ae9f-b3fd3d44ae46" d="M385,38.66A132.68,132.68,0,0,1,361.8,41h0c-2.66,0-5.21-.12-7.71-.35v15.9h5.82l.17-6.18,7.25-3.54h6l11.35-3.53,3.42-4.65h.1l3.42,4.06h0l-.32,6.48-5.68.3-18.56,7.06H397.6V36Z"/></svg>