<?xml version="1.0" encoding="utf-8"?>
<!-- Generator: Adobe Illustrator 22.0.1, SVG Export Plug-In . SVG Version: 6.00 Build 0)  -->
<!DOCTYPE svg PUBLIC "-//W3C//DTD SVG 1.1//EN" "http://www.w3.org/Graphics/SVG/1.1/DTD/svg11.dtd">
<svg version="1.1" id="Ebene_1" xmlns="http://www.w3.org/2000/svg" xmlns:xlink="http://www.w3.org/1999/xlink" x="0px" y="0px"
	 viewBox="0 0 541 57" style="enable-background:new 0 0 541 57;" xml:space="preserve">
<style type="text/css">
	.st0{filter:url(#Adobe_OpacityMaskFilter);}
	.st1{fill:#FFFFFF;}
	.st2{mask:url(#mask-2_1_);fill:#EB0000;}
	.st3{filter:url(#Adobe_OpacityMaskFilter_1_);}
	.st4{mask:url(#mask-2_2_);fill:#FFFFFF;}
</style>
<g id="SBB_POS_2F_RGB_100">
	<path d="M283.6,42.4c4.9,0,7.4-1.7,7.4-5.3c0-3.8-2.4-5.4-7.8-5.4h-8.3v10.7H283.6z M283.2,25.3c4.2,0,6.7-1.7,6.7-4.5
		c0-3.2-2.2-4.7-6.8-4.7h-8.3v9.2H283.2z M284.4,9.5c8.7,0,13.6,3.7,13.6,10.1c0,3.5-1.7,6.1-5.5,8.2c4.9,1.8,7,4.9,7,10.1
		c0,7-5.5,11.4-14.2,11.4h-18.9V9.5H284.4z M244.4,42.4c4.9,0,7.4-1.7,7.4-5.3c0-3.8-2.4-5.4-7.8-5.4h-8.1v10.7H244.4z M244.1,25.3
		c4.2,0,6.7-1.7,6.7-4.5c0-3.2-2.2-4.7-6.8-4.7h-8.1v9.2H244.1z M245.3,9.5c8.7,0,13.6,3.7,13.6,10.1c0,3.5-1.7,6.1-5.5,8.2
		c4.9,1.8,7,4.9,7,10.1c0,7-5.5,11.4-14.2,11.4h-18.7V9.5H245.3z M212.1,21.2c-0.5-4-2.9-5.9-7.7-5.9c-4.1,0-6.7,1.8-6.7,4.6
		c0,2.4,1.6,3.8,4.9,4.4l7.1,1.2c7.6,1.3,11.7,5.4,11.7,11.5c0,7.8-6.3,12.8-16.3,12.8c-10.6,0-16.7-5.1-16.8-14.1h8.4
		c0.5,5.2,3.1,7.4,8.7,7.4c4.3,0,7.4-2.3,7.4-5.4c0-2.5-1.7-4-4.9-4.6l-6.5-1.2c-8.3-1.6-12.1-5.1-12.1-11.5
		c0-7.3,5.8-11.9,15.3-11.9c9.3,0,15.1,4.7,15.3,12.6H212.1z M400.7,16.6v9.3h17.8v6.9h-17.8v16.3h-8.3V9.5h27.9v7.1H400.7z
		 M365.8,16.6v9.3h17.6v6.9h-17.6v16.3h-8.3V9.5h27.7v7.1H365.8z M351.7,35.2c-0.6,9.1-7.3,14.8-17.2,14.8
		c-11.2,0-18.6-8.1-18.6-20.6c0-12.4,7.6-20.8,18.7-20.8c9.6,0,16,5.3,16.7,13.7h-8.3c-1-4.5-3.8-6.7-8.4-6.7
		c-6.3,0-10.4,5.4-10.4,13.7c0,8.3,4,13.7,10.2,13.7c5.1,0,8-2.5,8.9-7.9H351.7z M530.8,21.2c-0.5-4-2.8-5.9-7.7-5.9
		c-4.1,0-6.7,1.8-6.7,4.6c0,2.4,1.6,3.8,4.9,4.4l7.1,1.2c7.6,1.3,11.7,5.4,11.7,11.5c0,7.8-6.3,12.8-16.3,12.8
		c-10.6,0-16.6-5.1-16.8-14.1h8.4c0.5,5.2,3.1,7.4,8.7,7.4c4.4,0,7.4-2.3,7.4-5.4c0-2.5-1.7-4-4.9-4.6l-6.5-1.2
		c-8.3-1.6-12.1-5.1-12.1-11.5c0-7.3,5.8-11.9,15.3-11.9c9.3,0,15.1,4.7,15.4,12.6H530.8z M482.8,16.6v9.3h17.7v6.9h-17.7v16.3h-8.3
		V9.5h27.8v7.1H482.8z M447.5,16.6v9.3h17.8v6.9h-17.8v16.3h-8.3V9.5h27.9v7.1H447.5z"/>
	<defs>
		<filter id="Adobe_OpacityMaskFilter" filterUnits="userSpaceOnUse" x="0" y="0" width="170" height="56.7">
			<feColorMatrix  type="matrix" values="1 0 0 0 0  0 1 0 0 0  0 0 1 0 0  0 0 0 1 0"/>
		</filter>
	</defs>
	<mask maskUnits="userSpaceOnUse" x="0" y="0" width="170" height="56.7" id="mask-2_1_">
		<g class="st0">
			<polygon id="path-1_1_" class="st1" points="0,60.9 541.4,60.9 541.4,0 0,0 			"/>
		</g>
	</mask>
	<polygon id="Fill-7" class="st2" points="0,56.7 170,56.7 170,0 0,0 	"/>
	<defs>
		<filter id="Adobe_OpacityMaskFilter_1_" filterUnits="userSpaceOnUse" x="85" y="9.5" width="75.5" height="37.8">
			<feColorMatrix  type="matrix" values="1 0 0 0 0  0 1 0 0 0  0 0 1 0 0  0 0 0 1 0"/>
		</filter>
	</defs>
	<mask maskUnits="userSpaceOnUse" x="85" y="9.5" width="75.5" height="37.8" id="mask-2_2_">
		<g class="st3">
			<polygon id="path-1_2_" class="st1" points="0,60.9 541.4,60.9 541.4,0 0,0 			"/>
		</g>
	</mask>
	<polygon id="Fill-9" class="st4" points="103.9,47.2 114.9,47.2 100.1,32.7 118.4,32.7 118.4,47.2 127.1,47.2 127.1,32.7 
		145.5,32.7 130.7,47.2 141.7,47.2 160.5,28.4 141.7,9.5 130.7,9.5 145.5,24 127.1,24 127.1,9.5 118.4,9.5 118.4,24 100.1,24 
		114.9,9.5 103.9,9.5 85,28.4 	"/>
</g>
</svg>
