<?xml version="1.0" encoding="utf-8"?>
<!-- Generator: Adobe Illustrator 24.1.2, SVG Export Plug-In . SVG Version: 6.00 Build 0)  -->
<svg version="1.1" id="Ebene_1" xmlns="http://www.w3.org/2000/svg" xmlns:xlink="http://www.w3.org/1999/xlink" x="0px" y="0px"
	 viewBox="0 0 1143 487.5" style="enable-background:new 0 0 1143 487.5;" xml:space="preserve">
<style type="text/css">
	.st0{fill:none;}
	.st1{fill:#F1F1F1;}
	.st2{fill:#E3E3E2;}
</style>
<g>
	<path class="st0" d="M1143,125.4L1143,125.4c-72.4-11.2-147.1-18.8-224.9-20.3C995.9,106.6,1070.6,114.2,1143,125.4z"/>
	<path class="st1" d="M918.1,105.2c77.9,1.4,152.6,9,224.9,20.3v-79c-129.9-19.2-259.2-38.6-404.3-45H704c-41.8-3-81.4-0.5-119.2,0
		c-110,5.4-202.7,16.2-289.4,28.2c-15.7,2.5-31.4,5-47.2,7.5C169.4,49.8,88.2,62.8,0,69.7v205.1C362.2,214,656.9,96.2,918.1,105.2z"
		/>
	<path class="st2" d="M918.1,105.2C656.9,96.2,362.2,214,0,274.8v212.7h1143V125.4C1070.6,114.2,995.9,106.6,918.1,105.2z"/>
</g>
</svg>
