<?xml version="1.0" encoding="utf-8"?>
<!-- Generator: Adobe Illustrator 24.1.2, SVG Export Plug-In . SVG Version: 6.00 Build 0)  -->
<svg version="1.1" id="Ebene_1" xmlns="http://www.w3.org/2000/svg" xmlns:xlink="http://www.w3.org/1999/xlink" x="0px" y="0px"
	 viewBox="0 0 1143 487.5" style="enable-background:new 0 0 1143 487.5;" xml:space="preserve">
<style type="text/css">
	.st0{fill:none;}
	.st1{fill:#F1F1F1;}
	.st2{fill:#E3E3E2;}
</style>
<g>
	<path class="st0" d="M1143,362.1L1143,362.1c-72.4,11.2-147.1,18.8-224.9,20.3C995.9,380.9,1070.6,373.3,1143,362.1z"/>
	<path class="st1" d="M918.1,382.3C656.9,391.4,362.2,273.5,0,212.7v205.1c88.2,6.9,169.4,19.9,248.2,32.5c15.8,2.5,31.6,5,47.2,7.5
		c86.7,12,179.4,22.8,289.4,28.2c37.9,0.5,77.4,3,119.2,0h34.7c145.2-6.4,274.4-25.8,404.3-45v-79
		C1070.6,373.3,995.9,380.9,918.1,382.3z"/>
	<path class="st2" d="M918.1,382.3c77.9-1.4,152.6-9,224.9-20.3V0H0v212.7C362.2,273.5,656.9,391.4,918.1,382.3z"/>
</g>
</svg>
