<?xml version="1.0" encoding="utf-8"?>
<!-- Generator: Adobe Illustrator 24.1.2, SVG Export Plug-In . SVG Version: 6.00 Build 0)  -->
<svg version="1.1" id="Ebene_1" xmlns="http://www.w3.org/2000/svg" xmlns:xlink="http://www.w3.org/1999/xlink" x="0px" y="0px"
	 viewBox="0 0 784.4 252.6" style="enable-background:new 0 0 784.4 252.6;" xml:space="preserve">
<style type="text/css">
	.st0{fill:#F1F1F1;}
	.st1{fill:#E3E3E3;}
</style>
<g id="ae8744d7-1e39-4816-ae1e-c73e712864f3">
	<path class="st0" d="M527.4,149.2C387.6,154,223.2,65.7,0,69.5v90.9c13.7-0.9,31.1-1.6,52.6-1.7c36.8-0.9,73.7,0.4,110.4,3.9
		c36.8,2.6,70.5,7.9,103.1,13.1c6.2,1,12.3,2,18.4,2.9c33.8,4.7,70,8.9,112.9,11c14.8,0.2,30.2,1.2,46.5,0h13.5
		c116.5-5.1,206.6-31.8,327-34.8v-51C704.5,122.4,621.9,147.5,527.4,149.2z"/>
	<path class="st1" d="M527.4,149.2c94.4-1.7,177-26.7,257-45.4V0H0v69.4C223.2,65.7,387.6,154,527.4,149.2z"/>
</g>
</svg>
